<svg xmlns="http://www.w3.org/2000/svg" xmlns:xlink="http://www.w3.org/1999/xlink"
    style="display: none;">
    <symbol id="Equis" viewBox="0 0 320.591 320.591">
        <path
            data-original="#000000"
            d="M30.391 318.583a30.37 30.37 0 0 1-21.56-7.288c-11.774-11.844-11.774-30.973 0-42.817L266.643 10.665c12.246-11.459 31.462-10.822 42.921 1.424 10.362 11.074 10.966 28.095 1.414 39.875L51.647 311.295a30.366 30.366 0 0 1-21.256 7.288z"
        />
        <path
            data-original="#000000"
            d="M287.9 318.583a30.37 30.37 0 0 1-21.257-8.806L8.83 51.963C-2.078 39.225-.595 20.055 12.143 9.146c11.369-9.736 28.136-9.736 39.504 0l259.331 257.813c12.243 11.462 12.876 30.679 1.414 42.922-.456.487-.927.958-1.414 1.414a30.368 30.368 0 0 1-23.078 7.288z"
        />
    </symbol>

    <symbol id="EmailAddress" viewBox="0 0 122.88 78.607">
        <path
            fill="currentColor"
            d="M61.058,65.992l24.224-24.221l36.837,36.836H73.673h-25.23H0l36.836-36.836 L61.058,65.992L61.058,65.992z M1.401,0l59.656,59.654L120.714,0H1.401L1.401,0z M0,69.673l31.625-31.628L0,6.42V69.673L0,69.673z M122.88,72.698L88.227,38.045L122.88,3.393V72.698L122.88,72.698z"
        />
    </symbol>

    <symbol id="Dropdown" viewBox="0 0 24 24" fill="none" stroke="currentColor">
        <path
            stroke-linecap="round" stroke-linejoin="round" stroke-width="2"
            d="M19 9l-7 7-7-7" />
    </symbol>
    
    <symbol id="BurguerMenu" viewBox="0 0 20 20">
        <path
            fill-rule="evenodd"
            clip-rule="evenodd"
            d="M3 5a1 1 0 011-1h12a1 1 0 110 2H4a1 1 0 01-1-1zM3 10a1 1 0 011-1h12a1 1 0 110 2H4a1 1 0 01-1-1zM3 15a1 1 0 011-1h12a1 1 0 110 2H4a1 1 0 01-1-1z"
        />
    </symbol>

</svg>